<?xml version="1.0" encoding="UTF-8"?>
<svg xmlns="http://www.w3.org/2000/svg" width="2460" height="1174" viewBox="0 0 2460 1174">
<defs>
  <marker id="arrow" markerWidth="10" markerHeight="7" refX="10" refY="3.5" orient="auto">
    <polygon points="0 0, 10 3.5, 0 7" />
  </marker>
</defs>
<rect x="0" y="0" width="2460" height="1174" fill="#ffffff" stroke="none"/>

<text x="40" y="28" font-size="20" font-weight="600">Productora audiovisual — Boceto inicial de clases (render autogenerado)</text>
<text x="40" y="48" font-size="12" fill="#666">Generado: 2025-08-24T22:58:21</text>
<rect x="30" y="40" width="320" height="28" rx="10" ry="10" fill="#f7f7f7" stroke="#ccc"/>
<text x="40" y="60" font-size="14" font-weight="600">Comercial</text>
<rect x="370" y="40" width="320" height="28" rx="10" ry="10" fill="#f7f7f7" stroke="#ccc"/>
<text x="380" y="60" font-size="14" font-weight="600">Proyecto</text>
<rect x="710" y="40" width="320" height="28" rx="10" ry="10" fill="#f7f7f7" stroke="#ccc"/>
<text x="720" y="60" font-size="14" font-weight="600">Recursos</text>
<rect x="1050" y="40" width="320" height="28" rx="10" ry="10" fill="#f7f7f7" stroke="#ccc"/>
<text x="1060" y="60" font-size="14" font-weight="600">Medios</text>
<rect x="1390" y="40" width="320" height="28" rx="10" ry="10" fill="#f7f7f7" stroke="#ccc"/>
<text x="1400" y="60" font-size="14" font-weight="600">Administración</text>
<rect x="1730" y="40" width="320" height="28" rx="10" ry="10" fill="#f7f7f7" stroke="#ccc"/>
<text x="1740" y="60" font-size="14" font-weight="600">Seguridad</text>
<rect x="2070" y="40" width="320" height="28" rx="10" ry="10" fill="#f7f7f7" stroke="#ccc"/>
<text x="2080" y="60" font-size="14" font-weight="600">Enums</text>
<rect x="40" y="76" width="300" height="150" rx="10" ry="10" fill="#FEFEFE" stroke="#999"/>
<rect x="40" y="76" width="300" height="26" rx="10" ry="10" fill="#EEEEEE" stroke="none"/>
<text x="50" y="94" font-size="13" font-weight="700">Cliente</text>
<text x="50" y="118" font-size="12">+id: UUID</text>
<text x="50" y="136" font-size="12">+razonSocial: String</text>
<text x="50" y="154" font-size="12">+contacto: String</text>
<text x="50" y="172" font-size="12">+email: String</text>
<text x="50" y="190" font-size="12">+telefono: String</text>
<rect x="40" y="250" width="300" height="132" rx="10" ry="10" fill="#FEFEFE" stroke="#999"/>
<rect x="40" y="250" width="300" height="26" rx="10" ry="10" fill="#EEEEEE" stroke="none"/>
<text x="50" y="268" font-size="13" font-weight="700">Brief</text>
<text x="50" y="292" font-size="12">+objetivos: String</text>
<text x="50" y="310" font-size="12">+alcance: String</text>
<text x="50" y="328" font-size="12">+publicoObjetivo: String</text>
<text x="50" y="346" font-size="12">+restricciones: String</text>
<rect x="40" y="406" width="300" height="132" rx="10" ry="10" fill="#FEFEFE" stroke="#999"/>
<rect x="40" y="406" width="300" height="26" rx="10" ry="10" fill="#EEEEEE" stroke="none"/>
<text x="50" y="424" font-size="13" font-weight="700">Presupuesto</text>
<text x="50" y="448" font-size="12">+id: UUID</text>
<text x="50" y="466" font-size="12">+monto: Money</text>
<text x="50" y="484" font-size="12">+fecha: Date</text>
<text x="50" y="502" font-size="12">+estado: EstadoPresupuesto</text>
<rect x="40" y="562" width="300" height="114" rx="10" ry="10" fill="#FEFEFE" stroke="#999"/>
<rect x="40" y="562" width="300" height="26" rx="10" ry="10" fill="#EEEEEE" stroke="none"/>
<text x="50" y="580" font-size="13" font-weight="700">Contrato</text>
<text x="50" y="604" font-size="12">+id: UUID</text>
<text x="50" y="622" font-size="12">+fechaFirma: Date</text>
<text x="50" y="640" font-size="12">+condiciones: String</text>
<rect x="380" y="76" width="300" height="168" rx="10" ry="10" fill="#FEFEFE" stroke="#999"/>
<rect x="380" y="76" width="300" height="26" rx="10" ry="10" fill="#EEEEEE" stroke="none"/>
<text x="390" y="94" font-size="13" font-weight="700">Proyecto</text>
<text x="390" y="118" font-size="12">+id: UUID</text>
<text x="390" y="136" font-size="12">+titulo: String</text>
<text x="390" y="154" font-size="12">+estado: EstadoProyecto</text>
<text x="390" y="172" font-size="12">+fechaInicio: Date</text>
<text x="390" y="190" font-size="12">+fechaFinPrevista: Date</text>
<text x="390" y="208" font-size="12">+presupuestoTotal: Money</text>
<rect x="380" y="268" width="300" height="204" rx="10" ry="10" fill="#FEFEFE" stroke="#999"/>
<rect x="380" y="268" width="300" height="26" rx="10" ry="10" fill="#EEEEEE" stroke="none"/>
<text x="390" y="286" font-size="13" font-weight="700">Tarea</text>
<text x="390" y="310" font-size="12">+id: UUID</text>
<text x="390" y="328" font-size="12">+titulo: String</text>
<text x="390" y="346" font-size="12">+tipo: String</text>
<text x="390" y="364" font-size="12">+estado: EstadoTarea</text>
<text x="390" y="382" font-size="12">+estimacionHoras: int</text>
<text x="390" y="400" font-size="12">+prioridad: int</text>
<text x="390" y="418" font-size="12">+fechaInicio: Date</text>
<text x="390" y="436" font-size="12">+fechaFin: Date</text>
<rect x="380" y="496" width="300" height="132" rx="10" ry="10" fill="#FEFEFE" stroke="#999"/>
<rect x="380" y="496" width="300" height="26" rx="10" ry="10" fill="#EEEEEE" stroke="none"/>
<text x="390" y="514" font-size="13" font-weight="700">Rodaje</text>
<text x="390" y="538" font-size="12">+id: UUID</text>
<text x="390" y="556" font-size="12">+fecha: Date</text>
<text x="390" y="574" font-size="12">+estado: String</text>
<text x="390" y="592" font-size="12">+observaciones: String</text>
<rect x="380" y="652" width="300" height="132" rx="10" ry="10" fill="#FEFEFE" stroke="#999"/>
<rect x="380" y="652" width="300" height="26" rx="10" ry="10" fill="#EEEEEE" stroke="none"/>
<text x="390" y="670" font-size="13" font-weight="700">Locacion</text>
<text x="390" y="694" font-size="12">+id: UUID</text>
<text x="390" y="712" font-size="12">+nombre: String</text>
<text x="390" y="730" font-size="12">+direccion: String</text>
<text x="390" y="748" font-size="12">+costoDiario: Money</text>
<rect x="380" y="808" width="300" height="132" rx="10" ry="10" fill="#FEFEFE" stroke="#999"/>
<rect x="380" y="808" width="300" height="26" rx="10" ry="10" fill="#EEEEEE" stroke="none"/>
<text x="390" y="826" font-size="13" font-weight="700">PedidoCambio</text>
<text x="390" y="850" font-size="12">+id: UUID</text>
<text x="390" y="868" font-size="12">+descripcion: String</text>
<text x="390" y="886" font-size="12">+fecha: Date</text>
<text x="390" y="904" font-size="12">+estado: String</text>
<rect x="380" y="964" width="300" height="186" rx="10" ry="10" fill="#FEFEFE" stroke="#999"/>
<rect x="380" y="964" width="300" height="26" rx="10" ry="10" fill="#EEEEEE" stroke="none"/>
<text x="390" y="982" font-size="13" font-weight="700">Entregable</text>
<text x="390" y="1006" font-size="12">+id: UUID</text>
<text x="390" y="1024" font-size="12">+nombre: String</text>
<text x="390" y="1042" font-size="12">+formato: String</text>
<text x="390" y="1060" font-size="12">+resolucion: String</text>
<text x="390" y="1078" font-size="12">+duracion: Duration</text>
<text x="390" y="1096" font-size="12">+fechaEntrega: Date</text>
<text x="390" y="1114" font-size="12">+url: URL</text>
<rect x="720" y="76" width="300" height="96" rx="10" ry="10" fill="#FEFEFE" stroke="#999"/>
<rect x="720" y="76" width="300" height="26" rx="10" ry="10" fill="#EEEEEE" stroke="none"/>
<text x="730" y="94" font-size="13" font-weight="700">Recurso</text>
<text x="730" y="118" font-size="12">#id: UUID</text>
<text x="730" y="136" font-size="12">+nombre: String</text>
<rect x="720" y="196" width="300" height="78" rx="10" ry="10" fill="#FEFEFE" stroke="#999"/>
<rect x="720" y="196" width="300" height="26" rx="10" ry="10" fill="#EEEEEE" stroke="none"/>
<text x="730" y="214" font-size="13" font-weight="700">RecursoHumano</text>
<text x="730" y="238" font-size="12">+rol: Rol</text>
<rect x="720" y="298" width="300" height="96" rx="10" ry="10" fill="#FEFEFE" stroke="#999"/>
<rect x="720" y="298" width="300" height="26" rx="10" ry="10" fill="#EEEEEE" stroke="none"/>
<text x="730" y="316" font-size="13" font-weight="700">RecursoMaterial</text>
<text x="730" y="340" font-size="12">+tipo: String</text>
<text x="730" y="358" font-size="12">+costoDia: Money</text>
<rect x="720" y="418" width="300" height="132" rx="10" ry="10" fill="#FEFEFE" stroke="#999"/>
<rect x="720" y="418" width="300" height="26" rx="10" ry="10" fill="#EEEEEE" stroke="none"/>
<text x="730" y="436" font-size="13" font-weight="700">Asignacion</text>
<text x="730" y="460" font-size="12">+id: UUID</text>
<text x="730" y="478" font-size="12">+desde: DateTime</text>
<text x="730" y="496" font-size="12">+hasta: DateTime</text>
<text x="730" y="514" font-size="12">+costo: Money</text>
<rect x="1060" y="76" width="300" height="186" rx="10" ry="10" fill="#FEFEFE" stroke="#999"/>
<rect x="1060" y="76" width="300" height="26" rx="10" ry="10" fill="#EEEEEE" stroke="none"/>
<text x="1070" y="94" font-size="13" font-weight="700">MediaAsset</text>
<text x="1070" y="118" font-size="12">+id: UUID</text>
<text x="1070" y="136" font-size="12">+tipo: String</text>
<text x="1070" y="154" font-size="12">+formato: String</text>
<text x="1070" y="172" font-size="12">+duracion: Duration</text>
<text x="1070" y="190" font-size="12">+version: int</text>
<text x="1070" y="208" font-size="12">+estado: String</text>
<text x="1070" y="226" font-size="12">+ruta: Path</text>
<rect x="1060" y="286" width="300" height="132" rx="10" ry="10" fill="#FEFEFE" stroke="#999"/>
<rect x="1060" y="286" width="300" height="26" rx="10" ry="10" fill="#EEEEEE" stroke="none"/>
<text x="1070" y="304" font-size="13" font-weight="700">RevisionCliente</text>
<text x="1070" y="328" font-size="12">+numero: int</text>
<text x="1070" y="346" font-size="12">+comentarios: String</text>
<text x="1070" y="364" font-size="12">+fecha: Date</text>
<text x="1070" y="382" font-size="12">+aprobado: Boolean</text>
<rect x="1400" y="76" width="300" height="168" rx="10" ry="10" fill="#FEFEFE" stroke="#999"/>
<rect x="1400" y="76" width="300" height="26" rx="10" ry="10" fill="#EEEEEE" stroke="none"/>
<text x="1410" y="94" font-size="13" font-weight="700">Factura</text>
<text x="1410" y="118" font-size="12">+id: UUID</text>
<text x="1410" y="136" font-size="12">+nro: String</text>
<text x="1410" y="154" font-size="12">+monto: Money</text>
<text x="1410" y="172" font-size="12">+estado: EstadoFactura</text>
<text x="1410" y="190" font-size="12">+fecha: Date</text>
<text x="1410" y="208" font-size="12">+vencimiento: Date</text>
<rect x="1740" y="76" width="300" height="132" rx="10" ry="10" fill="#FEFEFE" stroke="#999"/>
<rect x="1740" y="76" width="300" height="26" rx="10" ry="10" fill="#EEEEEE" stroke="none"/>
<text x="1750" y="94" font-size="13" font-weight="700">Usuario</text>
<text x="1750" y="118" font-size="12">+id: UUID</text>
<text x="1750" y="136" font-size="12">+nombre: String</text>
<text x="1750" y="154" font-size="12">+email: String</text>
<text x="1750" y="172" font-size="12">+rol: String</text>
<rect x="2080" y="76" width="300" height="168" rx="10" ry="10" fill="#FEFEFE" stroke="#999"/>
<rect x="2080" y="76" width="300" height="26" rx="10" ry="10" fill="#EEEEEE" stroke="none"/>
<text x="2090" y="94" font-size="13" font-weight="700">EstadoProyecto</text>
<text x="2090" y="118" font-size="12">Propuesto</text>
<text x="2090" y="136" font-size="12">EnPlanificacion</text>
<text x="2090" y="154" font-size="12">EnProduccion</text>
<text x="2090" y="172" font-size="12">EnPost</text>
<text x="2090" y="190" font-size="12">Entregado</text>
<text x="2090" y="208" font-size="12">Cancelado</text>
<rect x="2080" y="268" width="300" height="150" rx="10" ry="10" fill="#FEFEFE" stroke="#999"/>
<rect x="2080" y="268" width="300" height="26" rx="10" ry="10" fill="#EEEEEE" stroke="none"/>
<text x="2090" y="286" font-size="13" font-weight="700">EstadoTarea</text>
<text x="2090" y="310" font-size="12">Pendiente</text>
<text x="2090" y="328" font-size="12">EnCurso</text>
<text x="2090" y="346" font-size="12">Bloqueada</text>
<text x="2090" y="364" font-size="12">Hecha</text>
<text x="2090" y="382" font-size="12">Cancelada</text>
<rect x="2080" y="442" width="300" height="132" rx="10" ry="10" fill="#FEFEFE" stroke="#999"/>
<rect x="2080" y="442" width="300" height="26" rx="10" ry="10" fill="#EEEEEE" stroke="none"/>
<text x="2090" y="460" font-size="13" font-weight="700">EstadoPresupuesto</text>
<text x="2090" y="484" font-size="12">Borrador</text>
<text x="2090" y="502" font-size="12">Enviado</text>
<text x="2090" y="520" font-size="12">Aprobado</text>
<text x="2090" y="538" font-size="12">Rechazado</text>
<rect x="2080" y="598" width="300" height="150" rx="10" ry="10" fill="#FEFEFE" stroke="#999"/>
<rect x="2080" y="598" width="300" height="26" rx="10" ry="10" fill="#EEEEEE" stroke="none"/>
<text x="2090" y="616" font-size="13" font-weight="700">EstadoFactura</text>
<text x="2090" y="640" font-size="12">Borrador</text>
<text x="2090" y="658" font-size="12">Emitida</text>
<text x="2090" y="676" font-size="12">Pagada</text>
<text x="2090" y="694" font-size="12">Vencida</text>
<text x="2090" y="712" font-size="12">Anulada</text>
<rect x="2080" y="772" width="300" height="186" rx="10" ry="10" fill="#FEFEFE" stroke="#999"/>
<rect x="2080" y="772" width="300" height="26" rx="10" ry="10" fill="#EEEEEE" stroke="none"/>
<text x="2090" y="790" font-size="13" font-weight="700">Rol</text>
<text x="2090" y="814" font-size="12">Productor</text>
<text x="2090" y="832" font-size="12">Director</text>
<text x="2090" y="850" font-size="12">Camarografo</text>
<text x="2090" y="868" font-size="12">Editor</text>
<text x="2090" y="886" font-size="12">Sonidista</text>
<text x="2090" y="904" font-size="12">Asistente</text>
<text x="2090" y="922" font-size="12">Colorista</text>
<line x1="190.0" y1="151.0" x2="530.0" y2="160.0" stroke="#555" stroke-width="1.2" marker-end="url(#arrow)"/>

<rect x="320.0" y="145.5" width="80" height="16" rx="6" ry="6" fill="#fff" stroke="#ddd"/>

<text x="360.0" y="157.5" text-anchor="middle" font-size="11" fill="#444">contrata</text>
<line x1="530.0" y1="160.0" x2="190.0" y2="316.0" stroke="#555" stroke-width="1.2" marker-end="url(#arrow)"/>

<rect x="320.0" y="228.0" width="80" height="16" rx="6" ry="6" fill="#fff" stroke="#ddd"/>

<text x="360.0" y="240.0" text-anchor="middle" font-size="11" fill="#444">contiene</text>
<line x1="530.0" y1="160.0" x2="190.0" y2="472.0" stroke="#555" stroke-width="1.2" marker-end="url(#arrow)"/>

<rect x="320.0" y="306.0" width="80" height="16" rx="6" ry="6" fill="#fff" stroke="#ddd"/>

<text x="360.0" y="318.0" text-anchor="middle" font-size="11" fill="#444">presupuestos</text>
<line x1="530.0" y1="160.0" x2="190.0" y2="619.0" stroke="#555" stroke-width="1.2" marker-end="url(#arrow)"/>

<rect x="320.0" y="379.5" width="80" height="16" rx="6" ry="6" fill="#fff" stroke="#ddd"/>

<text x="360.0" y="391.5" text-anchor="middle" font-size="11" fill="#444">contrato</text>
<line x1="530.0" y1="160.0" x2="1550.0" y2="160.0" stroke="#555" stroke-width="1.2" marker-end="url(#arrow)"/>

<rect x="1000.0" y="150.0" width="80" height="16" rx="6" ry="6" fill="#fff" stroke="#ddd"/>

<text x="1040.0" y="162.0" text-anchor="middle" font-size="11" fill="#444">facturas</text>
<line x1="530.0" y1="160.0" x2="530.0" y2="370.0" stroke="#555" stroke-width="1.2" marker-end="url(#arrow)"/>

<rect x="490.0" y="255.0" width="80" height="16" rx="6" ry="6" fill="#fff" stroke="#ddd"/>

<text x="530.0" y="267.0" text-anchor="middle" font-size="11" fill="#444">tareas</text>
<line x1="530.0" y1="160.0" x2="530.0" y2="562.0" stroke="#555" stroke-width="1.2" marker-end="url(#arrow)"/>

<rect x="490.0" y="351.0" width="80" height="16" rx="6" ry="6" fill="#fff" stroke="#ddd"/>

<text x="530.0" y="363.0" text-anchor="middle" font-size="11" fill="#444">rodajes</text>
<line x1="530.0" y1="562.0" x2="530.0" y2="718.0" stroke="#555" stroke-width="1.2" marker-end="url(#arrow)"/>

<rect x="490.0" y="630.0" width="80" height="16" rx="6" ry="6" fill="#fff" stroke="#ddd"/>

<text x="530.0" y="642.0" text-anchor="middle" font-size="11" fill="#444">locación</text>
<line x1="530.0" y1="160.0" x2="1210.0" y2="169.0" stroke="#555" stroke-width="1.2" marker-end="url(#arrow)"/>

<rect x="830.0" y="154.5" width="80" height="16" rx="6" ry="6" fill="#fff" stroke="#ddd"/>

<text x="870.0" y="166.5" text-anchor="middle" font-size="11" fill="#444">produce/usa</text>
<line x1="530.0" y1="370.0" x2="1210.0" y2="169.0" stroke="#555" stroke-width="1.2" marker-end="url(#arrow)"/>

<rect x="830.0" y="259.5" width="80" height="16" rx="6" ry="6" fill="#fff" stroke="#ddd"/>

<text x="870.0" y="271.5" text-anchor="middle" font-size="11" fill="#444">usa</text>
<line x1="530.0" y1="370.0" x2="530.0" y2="874.0" stroke="#555" stroke-width="1.2" marker-end="url(#arrow)"/>

<rect x="490.0" y="612.0" width="80" height="16" rx="6" ry="6" fill="#fff" stroke="#ddd"/>

<text x="530.0" y="624.0" text-anchor="middle" font-size="11" fill="#444">cambios</text>
<line x1="530.0" y1="160.0" x2="530.0" y2="1057.0" stroke="#555" stroke-width="1.2" marker-end="url(#arrow)"/>

<rect x="490.0" y="598.5" width="80" height="16" rx="6" ry="6" fill="#fff" stroke="#ddd"/>

<text x="530.0" y="610.5" text-anchor="middle" font-size="11" fill="#444">entregables</text>
<line x1="530.0" y1="1057.0" x2="1210.0" y2="352.0" stroke="#555" stroke-width="1.2" marker-end="url(#arrow)"/>

<rect x="830.0" y="694.5" width="80" height="16" rx="6" ry="6" fill="#fff" stroke="#ddd"/>

<text x="870.0" y="706.5" text-anchor="middle" font-size="11" fill="#444">revisiones</text>
<line x1="870.0" y1="235.0" x2="530.0" y2="370.0" stroke="#555" stroke-width="1.2" marker-end="url(#arrow)"/>

<rect x="660.0" y="292.5" width="80" height="16" rx="6" ry="6" fill="#fff" stroke="#ddd"/>

<text x="700.0" y="304.5" text-anchor="middle" font-size="11" fill="#444">trabaja en</text>
<line x1="870.0" y1="346.0" x2="530.0" y2="562.0" stroke="#555" stroke-width="1.2" marker-end="url(#arrow)"/>

<rect x="660.0" y="444.0" width="80" height="16" rx="6" ry="6" fill="#fff" stroke="#ddd"/>

<text x="700.0" y="456.0" text-anchor="middle" font-size="11" fill="#444">se usa en</text>
<line x1="870.0" y1="484.0" x2="870.0" y2="124.0" stroke="#555" stroke-width="1.2" marker-end="url(#arrow)"/>

<rect x="830.0" y="294.0" width="80" height="16" rx="6" ry="6" fill="#fff" stroke="#ddd"/>

<text x="870.0" y="306.0" text-anchor="middle" font-size="11" fill="#444">asigna</text>
<line x1="870.0" y1="484.0" x2="530.0" y2="370.0" stroke="#555" stroke-width="1.2" marker-end="url(#arrow)"/>

<rect x="660.0" y="417.0" width="80" height="16" rx="6" ry="6" fill="#fff" stroke="#ddd"/>

<text x="700.0" y="429.0" text-anchor="middle" font-size="11" fill="#444">asigna</text>
</svg>